<svg width="93" height="105" viewBox="0 0 93 105" fill="none" xmlns="http://www.w3.org/2000/svg">
<path d="M33.0017 65.0002L60.0012 38.0002" stroke="black" stroke-width="0.5"/>
<path d="M33.002 65.0002L32 94" stroke="black" stroke-width="0.5"/>
<path d="M33.0019 65.0003L5.99982 76" stroke="black" stroke-width="0.5"/>
<path d="M48.001 15.0001L60.0014 38.0002" stroke="black" stroke-width="0.5"/>
<path d="M86.001 29.0002L60.0008 38.0007" stroke="black" stroke-width="0.5"/>
<path d="M71.001 13.0002L60.0012 38.0005" stroke="black" stroke-width="0.5"/>
<path d="M84.001 51.0002L60.001 38.0005" stroke="black" stroke-width="0.5"/>
<circle cx="47.8957" cy="14.8946" r="2.5" transform="rotate(9.94912 47.8957 14.8946)" fill="#F28E2B"/>
<circle cx="70.8957" cy="12.8946" r="2.5" transform="rotate(9.94912 70.8957 12.8946)" fill="#F28E2B"/>
<circle cx="85.8957" cy="28.8946" r="2.5" transform="rotate(9.94912 85.8957 28.8946)" fill="#F28E2B"/>
<circle cx="83.8957" cy="50.8946" r="2.5" transform="rotate(9.94912 83.8957 50.8946)" fill="#F28E2B"/>
<circle cx="5.89473" cy="75.8943" r="2.5" transform="rotate(9.94912 5.89473 75.8943)" fill="#59A14F"/>
<circle cx="31.8947" cy="93.8943" r="2.5" transform="rotate(9.94912 31.8947 93.8943)" fill="#59A14F"/>
<circle cx="59.8957" cy="37.8946" r="2.5" transform="rotate(9.94912 59.8957 37.8946)" fill="#E15759"/>
<circle cx="32.8957" cy="64.8946" r="2.5" transform="rotate(9.94912 32.8957 64.8946)" fill="#76B7B2"/>
</svg>
