<svg width="39" height="39" viewBox="0 0 39 39" fill="none" xmlns="http://www.w3.org/2000/svg">
<path d="M10.7813 11.852C12.7024 9.60585 15.3429 8.09525 18.2528 7.57763C21.1628 7.06 24.1622 7.56738 26.74 9.01332C29.3178 10.4592 31.3145 12.7543 32.3899 15.5073C33.4653 18.2604 33.5528 21.3012 32.6376 24.1115C31.7223 26.9219 29.8609 29.328 27.3706 30.9198C24.8802 32.5116 21.9149 33.1907 18.98 32.8413C16.0451 32.4919 13.3221 31.1357 11.275 29.0037C9.22797 26.8718 7.98345 24.0959 7.75355 21.1493M7.75355 21.1493L12.5002 16.4999M7.75355 21.1493L4.31909 15.3485" stroke="black" stroke-width="4"/>
<circle cx="20" cy="20" r="4" fill="black"/>
</svg>
