<svg width="143" height="85" viewBox="0 0 143 85" fill="none" xmlns="http://www.w3.org/2000/svg">
<path d="M32.04 78.632L31.592 77.96L35.4 75.384L31.592 72.872L32.024 72.152L37.976 75.384L32.04 78.632ZM38.8025 78.632L38.3545 77.96L42.1625 75.384L38.3545 72.872L38.7865 72.152L44.7385 75.384L38.8025 78.632ZM57.9446 78.216C57.8806 78.6 57.7633 78.9733 57.5926 79.336C57.4326 79.6987 57.2086 80.024 56.9206 80.312C56.6326 80.6 56.2753 80.8293 55.8486 81C55.422 81.1813 54.9153 81.272 54.3286 81.272C53.6886 81.272 53.0966 81.1867 52.5526 81.016C52.0193 80.8453 51.5553 80.5893 51.1606 80.248C50.7766 79.896 50.4726 79.4533 50.2486 78.92C50.0353 78.3867 49.9286 77.752 49.9286 77.016C49.9286 75.5973 50.318 74.4987 51.0966 73.72C51.8753 72.9307 52.9526 72.536 54.3286 72.536C54.8406 72.536 55.31 72.5947 55.7366 72.712C56.1633 72.8293 56.5313 72.9947 56.8406 73.208C57.1606 73.4107 57.406 73.656 57.5766 73.944C57.758 74.2213 57.8486 74.5253 57.8486 74.856C57.8486 75.1973 57.7526 75.48 57.5606 75.704C57.3686 75.9173 57.086 76.024 56.7126 76.024C56.3606 76.024 56.0886 75.928 55.8966 75.736C55.7046 75.5333 55.6086 75.2933 55.6086 75.016C55.6086 74.7707 55.694 74.5627 55.8646 74.392C56.046 74.2107 56.2646 74.1093 56.5206 74.088C56.3393 73.8853 56.1046 73.7253 55.8166 73.608C55.5393 73.4907 55.1606 73.432 54.6806 73.432C53.8486 73.432 53.2086 73.7093 52.7606 74.264C52.3233 74.8187 52.1046 75.6453 52.1046 76.744C52.1046 77.3627 52.1633 77.896 52.2806 78.344C52.4086 78.7813 52.5846 79.1387 52.8086 79.416C53.0326 79.6933 53.294 79.9013 53.5926 80.04C53.902 80.168 54.2326 80.232 54.5846 80.232C54.862 80.232 55.1286 80.1947 55.3846 80.12C55.6513 80.0347 55.8913 79.9067 56.1046 79.736C56.318 79.5653 56.494 79.3467 56.6326 79.08C56.782 78.8133 56.8833 78.488 56.9366 78.104L57.9446 78.216ZM67.2568 76.888C67.2568 78.2853 66.8727 79.368 66.1047 80.136C65.3367 80.8933 64.2221 81.272 62.7607 81.272C62.1847 81.272 61.6354 81.2027 61.1127 81.064C60.5901 80.936 60.1314 80.712 59.7367 80.392C59.3527 80.0613 59.0434 79.6293 58.8087 79.096C58.5741 78.552 58.4567 77.88 58.4567 77.08C58.4567 75.6187 58.8247 74.4987 59.5607 73.72C60.2967 72.9307 61.4221 72.536 62.9367 72.536C63.5234 72.536 64.0781 72.6107 64.6007 72.76C65.1341 72.8987 65.5927 73.1387 65.9767 73.48C66.3714 73.8107 66.6807 74.2533 66.9047 74.808C67.1394 75.3627 67.2568 76.056 67.2568 76.888ZM62.9207 73.592C62.1207 73.592 61.5394 73.8533 61.1767 74.376C60.8141 74.888 60.6327 75.6293 60.6327 76.6C60.6327 77.3253 60.6807 77.9227 60.7767 78.392C60.8727 78.8613 61.0114 79.2347 61.1927 79.512C61.3847 79.7787 61.6087 79.9653 61.8647 80.072C62.1314 80.1787 62.4354 80.232 62.7767 80.232C63.6194 80.232 64.2114 79.9493 64.5527 79.384C64.8941 78.8187 65.0647 78.0187 65.0647 76.984C65.0647 76.312 65.0114 75.7573 64.9047 75.32C64.8087 74.8827 64.6647 74.536 64.4727 74.28C64.2807 74.024 64.0514 73.848 63.7847 73.752C63.5287 73.6453 63.2407 73.592 62.9207 73.592ZM82.3596 79.368C82.3596 79.848 82.813 80.088 83.7196 80.088V81H79.1276V80.088C79.8316 80.088 80.1836 79.848 80.1836 79.368V75.816C80.1836 75.144 80.1036 74.664 79.9436 74.376C79.7943 74.088 79.5596 73.944 79.2396 73.944C78.7596 73.944 78.301 74.1307 77.8636 74.504C77.437 74.8773 77.0743 75.4 76.7756 76.072V79.368C76.7756 79.848 77.117 80.088 77.7996 80.088V81H73.5436V80.088C74.2476 80.088 74.5996 79.848 74.5996 79.368V75.816C74.5996 75.144 74.5196 74.664 74.3596 74.376C74.1996 74.088 73.9543 73.944 73.6236 73.944C73.1436 73.944 72.6796 74.1307 72.2316 74.504C71.7943 74.8773 71.437 75.4 71.1596 76.072V79.368C71.1596 79.848 71.5116 80.088 72.2156 80.088V81H67.6396V80.088C68.5356 80.088 68.9836 79.848 68.9836 79.368V74.488C68.9836 74.008 68.5356 73.768 67.6396 73.768V72.856H71.1596V74.536C71.3303 74.3013 71.5223 74.072 71.7356 73.848C71.9596 73.624 72.205 73.4267 72.4716 73.256C72.749 73.0853 73.053 72.952 73.3836 72.856C73.7143 72.7493 74.0823 72.696 74.4876 72.696C75.0956 72.696 75.597 72.8507 75.9916 73.16C76.397 73.4587 76.6476 73.928 76.7436 74.568C77.0956 74.0453 77.5543 73.6027 78.1196 73.24C78.685 72.8773 79.3356 72.696 80.0716 72.696C80.7756 72.696 81.3303 72.8827 81.7356 73.256C82.1516 73.6293 82.3596 74.2373 82.3596 75.08V79.368ZM86.8398 74.168C87.1064 73.624 87.5118 73.224 88.0558 72.968C88.5998 72.7013 89.2558 72.568 90.0238 72.568C90.5464 72.568 91.0424 72.648 91.5118 72.808C91.9811 72.968 92.3918 73.224 92.7438 73.576C93.1064 73.928 93.3891 74.3813 93.5918 74.936C93.8051 75.48 93.9118 76.1413 93.9118 76.92C93.9118 77.72 93.7944 78.3973 93.5598 78.952C93.3251 79.5067 93.0104 79.96 92.6158 80.312C92.2318 80.6533 91.7891 80.904 91.2878 81.064C90.7864 81.224 90.2691 81.304 89.7358 81.304C89.2131 81.304 88.7331 81.2347 88.2958 81.096C87.8691 80.9573 87.5331 80.76 87.2878 80.504V83.16C87.2878 83.64 87.8691 83.88 89.0318 83.88V84.776H83.7038V83.88C84.6318 83.88 85.0958 83.64 85.0958 83.16V74.504C85.0958 74.0133 84.6318 73.768 83.7038 73.768V72.856H86.7118L86.8398 74.168ZM89.3518 73.736C88.9358 73.736 88.5838 73.816 88.2958 73.976C88.0078 74.136 87.7731 74.36 87.5918 74.648C87.4211 74.9253 87.2984 75.2667 87.2238 75.672C87.1491 76.0667 87.1118 76.504 87.1118 76.984C87.1118 77.464 87.1491 77.9067 87.2238 78.312C87.2984 78.7067 87.4211 79.048 87.5918 79.336C87.7731 79.6133 88.0078 79.832 88.2958 79.992C88.5838 80.152 88.9358 80.232 89.3518 80.232C89.7678 80.232 90.1251 80.152 90.4238 79.992C90.7224 79.832 90.9678 79.6133 91.1598 79.336C91.3518 79.048 91.4904 78.7067 91.5758 78.312C91.6611 77.9067 91.7038 77.464 91.7038 76.984C91.7038 76.504 91.6611 76.0667 91.5758 75.672C91.4904 75.2667 91.3518 74.9253 91.1598 74.648C90.9678 74.36 90.7224 74.136 90.4238 73.976C90.1251 73.816 89.7678 73.736 89.3518 73.736ZM102.433 79.432C102.433 79.9013 102.593 80.136 102.913 80.136C103.062 80.136 103.174 80.0667 103.249 79.928C103.324 79.7787 103.361 79.6133 103.361 79.432V78.488H104.113V79.208C104.113 79.56 104.07 79.8587 103.985 80.104C103.9 80.3493 103.777 80.5467 103.617 80.696C103.457 80.8453 103.265 80.952 103.041 81.016C102.828 81.08 102.593 81.112 102.337 81.112C102.049 81.112 101.804 81.0693 101.601 80.984C101.398 80.888 101.228 80.7653 101.089 80.616C100.95 80.4667 100.844 80.296 100.769 80.104C100.694 79.912 100.636 79.7093 100.593 79.496C100.476 79.7307 100.31 79.9547 100.097 80.168C99.8942 80.3813 99.6489 80.5733 99.3609 80.744C99.0729 80.904 98.7475 81.032 98.3849 81.128C98.0222 81.224 97.6329 81.272 97.2169 81.272C96.2142 81.272 95.4782 81.0693 95.0089 80.664C94.5502 80.248 94.3209 79.688 94.3209 78.984C94.3209 78.5573 94.4009 78.2053 94.5609 77.928C94.7315 77.64 94.9609 77.4 95.2489 77.208C95.5475 77.016 95.8889 76.8667 96.2729 76.76C96.6675 76.6427 97.0835 76.5413 97.5209 76.456C97.9689 76.36 98.4275 76.2693 98.8969 76.184C99.3769 76.0987 99.8515 75.992 100.321 75.864V75.368C100.321 75.1013 100.284 74.8507 100.209 74.616C100.145 74.3813 100.033 74.1787 99.8729 74.008C99.7235 73.8267 99.5315 73.688 99.2969 73.592C99.0622 73.4853 98.7849 73.432 98.4649 73.432C97.9209 73.432 97.4622 73.4853 97.0889 73.592C96.7262 73.6987 96.4329 73.8427 96.2089 74.024C96.4542 74.0453 96.6622 74.1253 96.8329 74.264C97.0035 74.4027 97.0889 74.6 97.0889 74.856C97.0889 75.1547 96.9929 75.4 96.8009 75.592C96.6089 75.7733 96.3262 75.864 95.9529 75.864C95.5795 75.864 95.2969 75.768 95.1049 75.576C94.9235 75.3733 94.8329 75.096 94.8329 74.744C94.8329 74.4773 94.9182 74.2107 95.0889 73.944C95.2595 73.6773 95.5049 73.4427 95.8249 73.24C96.1449 73.0267 96.5395 72.856 97.0089 72.728C97.4889 72.6 98.0329 72.536 98.6409 72.536C99.1315 72.536 99.6062 72.584 100.065 72.68C100.524 72.7653 100.929 72.92 101.281 73.144C101.633 73.3573 101.91 73.656 102.113 74.04C102.326 74.4133 102.433 74.888 102.433 75.464V79.432ZM100.337 76.488C99.6542 76.6587 99.0622 76.8187 98.5609 76.968C98.0595 77.1067 97.6435 77.2613 97.3129 77.432C96.9822 77.592 96.7369 77.7787 96.5769 77.992C96.4169 78.2053 96.3369 78.472 96.3369 78.792C96.3369 79.176 96.4702 79.4747 96.7369 79.688C97.0035 79.9013 97.4089 80.008 97.9529 80.008C98.4969 80.008 98.9769 79.88 99.3929 79.624C99.8195 79.3573 100.134 79.0533 100.337 78.712V76.488ZM114.107 79.368C114.107 79.848 114.577 80.088 115.515 80.088V81H110.859V80.088C111.574 80.088 111.931 79.848 111.931 79.368V75.816C111.931 75.144 111.825 74.664 111.611 74.376C111.398 74.088 111.11 73.944 110.747 73.944C110.47 73.944 110.193 73.9973 109.915 74.104C109.649 74.2107 109.393 74.36 109.147 74.552C108.902 74.744 108.678 74.9733 108.475 75.24C108.273 75.496 108.107 75.7733 107.979 76.072V79.368C107.979 79.848 108.337 80.088 109.051 80.088V81H104.411V80.088C105.329 80.088 105.787 79.848 105.787 79.368V74.488C105.787 74.008 105.329 73.768 104.411 73.768V72.856H107.979V74.488C108.385 73.9653 108.891 73.5387 109.499 73.208C110.107 72.8667 110.801 72.696 111.579 72.696C112.379 72.696 112.998 72.8827 113.435 73.256C113.883 73.6293 114.107 74.2373 114.107 75.08V79.368ZM119.523 79.368C119.502 79.848 119.966 80.088 120.915 80.088V81H115.955V80.088C116.873 80.088 117.331 79.848 117.331 79.368V74.504C117.331 74.0133 116.873 73.768 115.955 73.768V72.856H119.523V79.368ZM119.715 70.168C119.715 70.5413 119.582 70.8667 119.315 71.144C119.059 71.4107 118.739 71.544 118.355 71.544C118.163 71.544 117.982 71.5067 117.811 71.432C117.651 71.3573 117.507 71.2613 117.379 71.144C117.262 71.016 117.166 70.872 117.091 70.712C117.017 70.5413 116.979 70.36 116.979 70.168C116.979 69.784 117.113 69.464 117.379 69.208C117.657 68.9413 117.982 68.808 118.355 68.808C118.729 68.808 119.049 68.9413 119.315 69.208C119.582 69.4747 119.715 69.7947 119.715 70.168ZM130.207 76.888C130.207 78.2853 129.823 79.368 129.055 80.136C128.287 80.8933 127.172 81.272 125.711 81.272C125.135 81.272 124.585 81.2027 124.063 81.064C123.54 80.936 123.081 80.712 122.687 80.392C122.303 80.0613 121.993 79.6293 121.759 79.096C121.524 78.552 121.407 77.88 121.407 77.08C121.407 75.6187 121.775 74.4987 122.511 73.72C123.247 72.9307 124.372 72.536 125.887 72.536C126.473 72.536 127.028 72.6107 127.551 72.76C128.084 72.8987 128.543 73.1387 128.927 73.48C129.321 73.8107 129.631 74.2533 129.855 74.808C130.089 75.3627 130.207 76.056 130.207 76.888ZM125.871 73.592C125.071 73.592 124.489 73.8533 124.127 74.376C123.764 74.888 123.583 75.6293 123.583 76.6C123.583 77.3253 123.631 77.9227 123.727 78.392C123.823 78.8613 123.961 79.2347 124.143 79.512C124.335 79.7787 124.559 79.9653 124.815 80.072C125.081 80.1787 125.385 80.232 125.727 80.232C126.569 80.232 127.161 79.9493 127.503 79.384C127.844 78.8187 128.015 78.0187 128.015 76.984C128.015 76.312 127.961 75.7573 127.855 75.32C127.759 74.8827 127.615 74.536 127.423 74.28C127.231 74.024 127.001 73.848 126.735 73.752C126.479 73.6453 126.191 73.592 125.871 73.592ZM140.286 79.368C140.286 79.848 140.755 80.088 141.694 80.088V81H137.038V80.088C137.752 80.088 138.11 79.848 138.11 79.368V75.816C138.11 75.144 138.003 74.664 137.79 74.376C137.576 74.088 137.288 73.944 136.926 73.944C136.648 73.944 136.371 73.9973 136.094 74.104C135.827 74.2107 135.571 74.36 135.326 74.552C135.08 74.744 134.856 74.9733 134.654 75.24C134.451 75.496 134.286 75.7733 134.158 76.072V79.368C134.158 79.848 134.515 80.088 135.23 80.088V81H130.59V80.088C131.507 80.088 131.966 79.848 131.966 79.368V74.488C131.966 74.008 131.507 73.768 130.59 73.768V72.856H134.158V74.488C134.563 73.9653 135.07 73.5387 135.678 73.208C136.286 72.8667 136.979 72.696 137.758 72.696C138.558 72.696 139.176 72.8827 139.614 73.256C140.062 73.6293 140.286 74.2373 140.286 75.08V79.368Z" fill="black"/>
<path d="M41.664 37.544C39.0187 37.544 37.4187 38.2693 36.864 39.72L25.792 66.984C24.9813 68.9467 24.192 70.7173 23.424 72.296C22.656 73.8747 21.76 75.2187 20.736 76.328C19.7547 77.48 18.5813 78.3547 17.216 78.952C15.8933 79.5493 14.2507 79.848 12.288 79.848C10.7947 79.848 9.408 79.656 8.128 79.272C6.848 78.888 5.73867 78.312 4.8 77.544C3.904 76.776 3.2 75.8373 2.688 74.728C2.176 73.6613 1.92 72.424 1.92 71.016C1.92 70.4613 2.02667 69.864 2.24 69.224C2.45333 68.6267 2.77333 68.072 3.2 67.56C3.66933 67.048 4.224 66.6213 4.864 66.28C5.54667 65.9387 6.31467 65.768 7.168 65.768C8.66133 65.768 9.83467 66.1307 10.688 66.856C11.5413 67.5813 11.968 68.4987 11.968 69.608C11.968 70.7173 11.6053 71.6133 10.88 72.296C10.1547 73.0213 9.19467 73.4267 8 73.512C8.384 74.152 8.87467 74.6427 9.472 74.984C10.112 75.368 11.1787 75.56 12.672 75.56C14.0373 75.56 15.1893 75.112 16.128 74.216C17.0667 73.32 18.0693 71.8907 19.136 69.928L6.4 39.784C6.05867 39.0587 5.48267 38.504 4.672 38.12C3.86133 37.736 2.944 37.544 1.92 37.544V32.424H21.504V37.544H19.456C18.8587 37.544 18.4107 37.672 18.112 37.928C17.8133 38.184 17.664 38.504 17.664 38.888C17.664 39.1013 17.728 39.3573 17.856 39.656L24.704 57.64L31.744 40.296C31.872 39.912 31.936 39.5493 31.936 39.208C31.936 38.0987 31.104 37.544 29.44 37.544H28.16V32.424H41.664V37.544ZM84.835 33.064L78.371 33.576C77.731 30.248 76.4297 27.6667 74.467 25.832C72.547 23.9547 69.923 23.016 66.595 23.016C61.7737 23.016 58.339 24.616 56.291 27.816C54.2857 30.9733 53.283 35.4533 53.283 41.256C53.283 44.2853 53.5817 46.888 54.179 49.064C54.819 51.24 55.6723 53.032 56.739 54.44C57.8483 55.8053 59.1283 56.8293 60.579 57.512C62.0723 58.152 63.651 58.472 65.315 58.472C69.3257 58.472 72.419 57.6613 74.595 56.04C76.8137 54.4187 78.4777 51.9013 79.587 48.488L85.411 49.96C84.8563 52.0933 84.067 54.12 83.043 56.04C82.019 57.96 80.675 59.6667 79.011 61.16C77.347 62.6533 75.299 63.848 72.867 64.744C70.435 65.5973 67.555 66.024 64.227 66.024C60.8563 66.024 57.6777 65.5333 54.691 64.552C51.747 63.5707 49.1657 62.0773 46.947 60.072C44.771 58.0667 43.043 55.5493 41.763 52.52C40.483 49.448 39.843 45.8427 39.843 41.704C39.843 37.3947 40.4617 33.6613 41.699 30.504C42.979 27.304 44.6857 24.68 46.819 22.632C48.9523 20.5413 51.4057 18.984 54.179 17.96C56.995 16.936 59.9603 16.424 63.075 16.424C66.3177 16.424 69.1123 16.8293 71.459 17.64C73.8483 18.408 75.7257 19.4107 77.091 20.648L78.563 17.448H84.835V33.064ZM111.915 17.448C114.39 17.448 116.651 17.5973 118.699 17.896C120.79 18.152 122.561 18.7067 124.011 19.56C125.462 20.3707 126.593 21.5653 127.403 23.144C128.214 24.68 128.619 26.7493 128.619 29.352C128.619 30.8453 128.385 32.168 127.916 33.32C127.446 34.472 126.785 35.4747 125.931 36.328C125.121 37.1387 124.161 37.8 123.051 38.312C121.942 38.824 120.747 39.208 119.467 39.464C123.35 39.8053 126.358 40.9147 128.492 42.792C130.668 44.6693 131.756 47.3573 131.756 50.856C131.756 53.544 131.393 55.8053 130.667 57.64C129.985 59.432 128.897 60.8827 127.403 61.992C125.91 63.0587 124.011 63.8267 121.708 64.296C119.403 64.7653 116.673 65 113.515 65H83.7555V59.752C87.5528 59.752 89.4515 58.7707 89.4515 56.808V26.088C89.4515 24.1253 87.5528 23.144 83.7555 23.144V17.448H111.915ZM102.443 42.792V58.152H110.699C112.15 58.152 113.345 57.96 114.283 57.576C115.265 57.192 116.033 56.6587 116.587 55.976C117.185 55.2507 117.59 54.4187 117.803 53.48C118.059 52.4987 118.188 51.432 118.188 50.28C118.188 47.8053 117.611 45.9493 116.459 44.712C115.307 43.432 113.387 42.792 110.699 42.792H102.443ZM102.443 24.744V37.352H109.035C111.382 37.352 113.003 36.776 113.899 35.624C114.838 34.472 115.307 32.68 115.307 30.248C115.307 26.5787 113.217 24.744 109.035 24.744H102.443Z" fill="black"/>
</svg>
